<?xml version="1.0" encoding="UTF-8" standalone="no"?>
<!DOCTYPE svg PUBLIC "-//W3C//DTD SVG 1.1//EN"
 "http://www.w3.org/Graphics/SVG/1.1/DTD/svg11.dtd">
<!-- Generated by graphviz version 2.43.0 (0)
 -->
<!-- Title: LeanEthereumPQ Pages: 1 -->
<svg width="612pt" height="246pt"
 viewBox="0.00 0.00 612.00 246.00" xmlns="http://www.w3.org/2000/svg" xmlns:xlink="http://www.w3.org/1999/xlink">
<g id="graph0" class="graph" transform="scale(1 1) rotate(0) translate(4 242)">
<title>LeanEthereumPQ</title>
<polygon fill="white" stroke="transparent" points="-4,4 -4,-242 608,-242 608,4 -4,4"/>
<g id="clust1" class="cluster">
<title>cluster_pq</title>
<polygon fill="none" stroke="#ef4444" stroke-dasharray="5,2" points="256,-8 256,-155 456,-155 456,-8 256,-8"/>
<text text-anchor="middle" x="356" y="-139.8" font-family="Times,serif" font-size="14.00">Post&#45;Quantum Signatures</text>
</g>
<g id="clust2" class="cluster">
<title>cluster_piop</title>
<polygon fill="none" stroke="#8b5cf6" stroke-dasharray="5,2" points="464,-8 464,-230 596,-230 596,-8 464,-8"/>
<text text-anchor="middle" x="530" y="-214.8" font-family="Times,serif" font-size="14.00">Polynomial IOPs</text>
</g>
<g id="clust3" class="cluster">
<title>cluster_blockchain</title>
<polygon fill="none" stroke="#22c55e" stroke-dasharray="5,2" points="8,-80 8,-230 248,-230 248,-80 8,-80"/>
<text text-anchor="middle" x="128" y="-214.8" font-family="Times,serif" font-size="14.00">Blockchain / Payment Channels</text>
</g>
<!-- IncomparableEncoding -->
<g id="node1" class="node">
<title>IncomparableEncoding</title>
<path fill="#ef4444" fill-opacity="0.125490" stroke="#ef4444" d="M407.5,-52C407.5,-52 276.5,-52 276.5,-52 270.5,-52 264.5,-46 264.5,-40 264.5,-40 264.5,-28 264.5,-28 264.5,-22 270.5,-16 276.5,-16 276.5,-16 407.5,-16 407.5,-16 413.5,-16 419.5,-22 419.5,-28 419.5,-28 419.5,-40 419.5,-40 419.5,-46 413.5,-52 407.5,-52"/>
<text text-anchor="middle" x="342" y="-30.3" font-family="Arial" font-size="14.00">IncomparableEncoding</text>
</g>
<!-- Poseidon2 -->
<g id="node2" class="node">
<title>Poseidon2</title>
<path fill="#ef4444" fill-opacity="0.125490" stroke="#ef4444" d="M428,-124C428,-124 372,-124 372,-124 366,-124 360,-118 360,-112 360,-112 360,-100 360,-100 360,-94 366,-88 372,-88 372,-88 428,-88 428,-88 434,-88 440,-94 440,-100 440,-100 440,-112 440,-112 440,-118 434,-124 428,-124"/>
<text text-anchor="middle" x="400" y="-102.3" font-family="Arial" font-size="14.00">Poseidon2</text>
</g>
<!-- XMSS -->
<g id="node3" class="node">
<title>XMSS</title>
<path fill="#ef4444" fill-opacity="0.125490" stroke="#ef4444" d="M323,-124C323,-124 291,-124 291,-124 285,-124 279,-118 279,-112 279,-112 279,-100 279,-100 279,-94 285,-88 291,-88 291,-88 323,-88 323,-88 329,-88 335,-94 335,-100 335,-100 335,-112 335,-112 335,-118 329,-124 323,-124"/>
<text text-anchor="middle" x="307" y="-102.3" font-family="Arial" font-size="14.00">XMSS</text>
</g>
<!-- XMSS&#45;&gt;IncomparableEncoding -->
<g id="edge1" class="edge">
<title>XMSS&#45;&gt;IncomparableEncoding</title>
<path fill="none" stroke="#64748b" d="M315.65,-87.7C319.64,-79.73 324.45,-70.1 328.87,-61.26"/>
<polygon fill="#64748b" stroke="#64748b" points="332.11,-62.61 333.45,-52.1 325.85,-59.48 332.11,-62.61"/>
</g>
<!-- Multilinear -->
<g id="node4" class="node">
<title>Multilinear</title>
<path fill="#8b5cf6" fill-opacity="0.125490" stroke="#8b5cf6" d="M557.5,-52C557.5,-52 502.5,-52 502.5,-52 496.5,-52 490.5,-46 490.5,-40 490.5,-40 490.5,-28 490.5,-28 490.5,-22 496.5,-16 502.5,-16 502.5,-16 557.5,-16 557.5,-16 563.5,-16 569.5,-22 569.5,-28 569.5,-28 569.5,-40 569.5,-40 569.5,-46 563.5,-52 557.5,-52"/>
<text text-anchor="middle" x="530" y="-30.3" font-family="Arial" font-size="14.00">Multilinear</text>
</g>
<!-- Sumcheck -->
<g id="node5" class="node">
<title>Sumcheck</title>
<path fill="#8b5cf6" fill-opacity="0.125490" stroke="#8b5cf6" d="M558,-124C558,-124 502,-124 502,-124 496,-124 490,-118 490,-112 490,-112 490,-100 490,-100 490,-94 496,-88 502,-88 502,-88 558,-88 558,-88 564,-88 570,-94 570,-100 570,-100 570,-112 570,-112 570,-118 564,-124 558,-124"/>
<text text-anchor="middle" x="530" y="-102.3" font-family="Arial" font-size="14.00">Sumcheck</text>
</g>
<!-- Sumcheck&#45;&gt;Multilinear -->
<g id="edge2" class="edge">
<title>Sumcheck&#45;&gt;Multilinear</title>
<path fill="none" stroke="#64748b" d="M530,-87.7C530,-79.98 530,-70.71 530,-62.11"/>
<polygon fill="#64748b" stroke="#64748b" points="533.5,-62.1 530,-52.1 526.5,-62.1 533.5,-62.1"/>
</g>
<!-- FiatShamir -->
<g id="node6" class="node">
<title>FiatShamir</title>
<path fill="#8b5cf6" fill-opacity="0.125490" stroke="#8b5cf6" d="M559.5,-199C559.5,-199 500.5,-199 500.5,-199 494.5,-199 488.5,-193 488.5,-187 488.5,-187 488.5,-175 488.5,-175 488.5,-169 494.5,-163 500.5,-163 500.5,-163 559.5,-163 559.5,-163 565.5,-163 571.5,-169 571.5,-175 571.5,-175 571.5,-187 571.5,-187 571.5,-193 565.5,-199 559.5,-199"/>
<text text-anchor="middle" x="530" y="-177.3" font-family="Arial" font-size="14.00">FiatShamir</text>
</g>
<!-- FiatShamir&#45;&gt;Sumcheck -->
<g id="edge3" class="edge">
<title>FiatShamir&#45;&gt;Sumcheck</title>
<path fill="none" stroke="#64748b" d="M530,-162.7C530,-154.25 530,-143.87 530,-134.37"/>
<polygon fill="#64748b" stroke="#64748b" points="533.5,-134.18 530,-124.18 526.5,-134.18 533.5,-134.18"/>
</g>
<!-- MessageModelSeq -->
<g id="node7" class="node">
<title>MessageModelSeq</title>
<path fill="#22c55e" fill-opacity="0.125490" stroke="#22c55e" d="M227,-124C227,-124 117,-124 117,-124 111,-124 105,-118 105,-112 105,-112 105,-100 105,-100 105,-94 111,-88 117,-88 117,-88 227,-88 227,-88 233,-88 239,-94 239,-100 239,-100 239,-112 239,-112 239,-118 233,-124 227,-124"/>
<text text-anchor="middle" x="172" y="-102.3" font-family="Arial" font-size="14.00">MessageModelSeq</text>
</g>
<!-- PostQuantumHTLC -->
<g id="node8" class="node">
<title>PostQuantumHTLC</title>
<path fill="#22c55e" fill-opacity="0.125490" stroke="#22c55e" d="M228,-199C228,-199 116,-199 116,-199 110,-199 104,-193 104,-187 104,-187 104,-175 104,-175 104,-169 110,-163 116,-163 116,-163 228,-163 228,-163 234,-163 240,-169 240,-175 240,-175 240,-187 240,-187 240,-193 234,-199 228,-199"/>
<text text-anchor="middle" x="172" y="-177.3" font-family="Arial" font-size="14.00">PostQuantumHTLC</text>
</g>
<!-- PostQuantumHTLC&#45;&gt;XMSS -->
<g id="edge5" class="edge">
<title>PostQuantumHTLC&#45;&gt;XMSS</title>
<path fill="none" stroke="#64748b" d="M235.48,-162.88C241.2,-160.54 246.79,-157.91 252,-155 263.41,-148.62 274.55,-139.59 283.79,-131.08"/>
<polygon fill="#64748b" stroke="#64748b" points="286.25,-133.56 291.06,-124.12 281.42,-128.5 286.25,-133.56"/>
</g>
<!-- PostQuantumHTLC&#45;&gt;MessageModelSeq -->
<g id="edge4" class="edge">
<title>PostQuantumHTLC&#45;&gt;MessageModelSeq</title>
<path fill="none" stroke="#64748b" d="M172,-162.7C172,-154.25 172,-143.87 172,-134.37"/>
<polygon fill="#64748b" stroke="#64748b" points="175.5,-134.18 172,-124.18 168.5,-134.18 175.5,-134.18"/>
</g>
</g>
</svg>
